<svg id="eb683f3c-0cfa-428e-8eea-89f058868f7d" data-name="Layer 1" xmlns="http://www.w3.org/2000/svg" viewBox="0 0 211.07 200"><defs><style>.f93bccc5-d2e6-436d-a2b8-3a9b0d50e345{fill:#010101;}.a09cf3ac-d854-418e-86d3-463ce8c01a1a,.f9719ff3-a0b8-4be0-be01-13d3af8c8701{fill:#ec2227;}.f9719ff3-a0b8-4be0-be01-13d3af8c8701{fill-rule:evenodd;}.a6aa6ee2-7b24-4b11-8f7e-676e2bdb9474{fill:#fff;}.f9e0ace9-8766-4cc1-befb-ae02b38712e3{fill:#049156;}</style></defs><path class="f93bccc5-d2e6-436d-a2b8-3a9b0d50e345" d="M62.77,119a24.37,24.37,0,0,1-9.1-3.66,35.37,35.37,0,0,1-3.91-3.17,35,35,0,0,1-3.33-3.74,43.43,43.43,0,0,1-7.88-18.2,48,48,0,0,1-.65-4.88l-.08-1.14-.09-1L37.49,81a40.57,40.57,0,0,0-2-8.21c-.49-1.38-1.06-2.6-1.63-3.9a21.42,21.42,0,0,0-2.11-3.74,26.37,26.37,0,0,0-2.6-3.57A14.93,14.93,0,0,0,27.57,60a14.88,14.88,0,0,0-1.78-1.46l.16-.41a15.77,15.77,0,0,1,4.14,2.28,31.89,31.89,0,0,1,3.5,3.17,30.85,30.85,0,0,1,5.12,7.8,39.19,39.19,0,0,1,2.93,8.86c.32,1.54.56,3.09.73,4.63a38.9,38.9,0,0,0,.73,4.55,48.51,48.51,0,0,0,6.5,17.16,31.63,31.63,0,0,0,13.58,12.11ZM24.65,44.51c1-.73,2-1.47,3-2.12s2.19-1.13,3.33-1.7a27,27,0,0,1,7.31-2,19.89,19.89,0,0,1,7.89.74,32.52,32.52,0,0,1,7.15,3c1.14.65,2.2,1.3,3.25,2s2.12,1.47,3.09,2.28l1.46,1.22c.49.41,1,.89,1.39,1.3a23.22,23.22,0,0,0,2.35,2A8.41,8.41,0,0,0,69.43,53a10,10,0,0,0,4.8-1.14,19.24,19.24,0,0,0,2.52-1.46c.41-.33.81-.57,1.22-.89l1.38-1.06C81.22,47,83,45.48,84.88,44c3.74-2.85,7.39-5.93,11.22-8.78,7.72-5.69,15.44-11.3,23.57-16.42l.32.33c-7.07,6.34-14.22,12.6-21.46,18.85C95,41.09,91.3,44.26,87.72,47.27c-1.79,1.54-3.65,3.09-5.52,4.55a27.29,27.29,0,0,1-5.94,4.07,13.6,13.6,0,0,1-7.15,1.46,13.2,13.2,0,0,1-6.67-2.85C60.49,53,59,51.17,57.16,49.63a41.14,41.14,0,0,0-5.69-4.23c-4-2.52-8.45-4.47-13.17-4.31a30.43,30.43,0,0,0-13.49,3.82l-.16-.4ZM107.8,56.86a76.45,76.45,0,0,1,9.43-11.62,136.71,136.71,0,0,1,10.73-10,127.89,127.89,0,0,1,11.78-8.7,78.91,78.91,0,0,1,13.17-7.07l.33.33-5.61,4.71L142,29.23,130.8,38.57l-11.3,9.27-5.69,4.63L108.12,57ZM123.49,70a76.08,76.08,0,0,1,9.26-11.62,112.86,112.86,0,0,1,10.65-10,120.32,120.32,0,0,1,11.71-8.7,78,78,0,0,1,13.08-7.15l.33.32L163,37.68l-5.53,4.71-11.13,9.43-11.22,9.27-5.61,4.63-5.69,4.63-.32-.32ZM141,83.28a65.6,65.6,0,0,1,8.38-10.81A106.37,106.37,0,0,1,170,55.4a61.7,61.7,0,0,1,12.19-6.26l.25.33-5,4.3-5.12,4.31L162,66.7l-10.25,8.45-5.2,4.23-5.2,4.14-.33-.24Zm-6.9,29.91a104.15,104.15,0,0,1,11.13-13.33,151.81,151.81,0,0,1,12.52-11.7c4.31-3.66,8.86-7.16,13.57-10.41a105.21,105.21,0,0,1,15-8.86l.32.33-6.42,5.61-6.5,5.52-13,11.14-13.16,11.05L141,108.07l-6.58,5.45-.24-.33Z"/><path class="f9719ff3-a0b8-4be0-be01-13d3af8c8701" d="M38.06,51.42a2,2,0,1,1-2-2,2,2,0,0,1,2,2"/><path class="f93bccc5-d2e6-436d-a2b8-3a9b0d50e345" d="M22,139.2h1.7v16.66H22Zm3.9,1.63V139.2H35v1.63H31.23V156H29.61V140.83Zm16.42-1.63,7.8,16.66H48.3l-2.6-5.44H38.47l-2.61,5.44H34l7.88-16.66Zm-.17,3.58-2.84,6H45Zm10.57-3.58H54.4v15.12h6.42V156H52.69Zm10.57,0H65v16.66h-1.7Zm12.27,0,7.8,16.66H81.55l-2.61-5.44H71.71l-2.6,5.44H67.24l7.88-16.66Zm-.16,3.58-2.85,6h5.69ZM85.93,156V139.2h.41L97.4,152V139.2H99V156H98.7L87.64,143.26V156Zm30.49-16.75,7.8,16.66h-1.79l-2.6-5.44H112.6L110,155.86h-1.87L116,139.2Zm-.25,3.58-2.84,6H119Zm27.72,5.12c0,5.28-3.41,8.37-8.37,8.37-5.77,0-9.43-4.15-9.43-8.7a8.79,8.79,0,0,1,9.18-8.78,10.42,10.42,0,0,1,7.64,3.26l-1.3,1.21a9.1,9.1,0,0,0-6.34-2.84,7.32,7.32,0,0,0-7.47,7.07,7.48,7.48,0,0,0,7.72,7.24c3.17,0,6-1.87,6.42-5.29h-5.29v-1.62h7.24Zm3.17-8.7h9.51v1.63h-7.89v5.28h7.89v1.63h-7.89v6.58h7.89V156h-9.51ZM159.5,156V139.2h.4L171,152V139.2h1.62V156h-.32L161.2,143.26V156ZM192.25,153a8.85,8.85,0,0,1-7.31,3.33c-5.61,0-9-3.9-9-8.86s3.82-8.7,9-8.7a8.74,8.74,0,0,1,7.31,3.5l-1.3,1a7.11,7.11,0,0,0-5.93-2.84,7.16,7.16,0,1,0,.16,14.31A7.46,7.46,0,0,0,191,152l1.22,1.06Zm7.4-5-5.37-8.78h1.95l4.23,6.91,4.23-6.91h1.95L201.27,148v8h-1.62ZM22,160.25h7.39V163H24.73v2.6h4.63v2.76H24.73v6.67H22Zm24.54,7.4a7.59,7.59,0,0,1-7.64,7.72,7.76,7.76,0,1,1,7.64-7.72m-12.51,0a4.84,4.84,0,1,0,4.79-5,4.76,4.76,0,0,0-4.79,5m15.36-7.48h3.41c1.87,0,3.17.25,4.23,1.22a4.44,4.44,0,0,1,1.22,3.09,4,4,0,0,1-2.85,4l3.5,6.59H55.78l-3.33-6.26H52.2v6.26H49.36ZM52.2,166h1.3c1.3,0,2-.48,2-1.54s-.65-1.54-2-1.54H52.2V166ZM67,160.17h3.49c2.6,0,4.47.33,6,1.87a7.67,7.67,0,0,1,2.11,5.69,7.34,7.34,0,0,1-2.52,5.85c-1.71,1.3-3.41,1.39-5.61,1.39H66.91v-14.8ZM69.76,163v9.26H71.3a4.44,4.44,0,0,0,3.5-1.14,5.18,5.18,0,0,0,1.06-3.41c0-3.09-1.71-4.79-5-4.79H69.76Zm11.62-2.77h8.13V163H84.23v2.6h5.28v2.76H84.23v3.9h5.28v2.77H81.38Zm9.59,0H93.9l3.74,10.49,3.74-10.49h2.92l-5.36,14.8H96.26Zm15.61,0h8.13V163h-5.28v2.6h5.28v2.76h-5.28v3.9h5.28v2.77h-8.13Zm10.73,0h2.84v12.11h4.07v2.69h-6.91Zm23.73,7.4a7.59,7.59,0,0,1-7.64,7.72,7.76,7.76,0,1,1,7.64-7.72m-12.51,0a4.84,4.84,0,1,0,4.79-5,4.76,4.76,0,0,0-4.79,5m15.2-7.48h3.41c2,0,3.25.33,4.23,1.22a4.44,4.44,0,0,1,1.22,3.09,3.86,3.86,0,0,1-1.87,3.49,7.67,7.67,0,0,1-4.15.74V175h-2.84v-14.8Zm2.84,5.85h1.3c1.3,0,1.95-.48,1.95-1.54s-.73-1.54-2-1.54h-1.22V166Zm10.16-5.77h2.77l3.41,10.33,3.49-10.33h2.69l2.52,14.8h-2.77l-1.54-9.35-3.17,9.35h-2.52l-3.09-9.35-1.63,9.35h-2.76Zm17.15,0H182V163h-5.28v2.6H182v2.76h-5.28v3.9H182v2.77h-8.13Zm10.73,0h2.68l6.34,9.68v-9.68h2.85v14.8H193.8l-6.34-9.76v9.76h-2.85Zm13.82,0h8.21V163h-2.76v12H201V163h-2.6ZM39.12,193.42a9.4,9.4,0,0,1-7.64,3.49c-5.86,0-9.43-4.14-9.43-9.26s4-9.11,9.43-9.11a9.08,9.08,0,0,1,7.64,3.66l-1.39,1.06a7.51,7.51,0,0,0-6.25-3,7.52,7.52,0,1,0,.08,15,7.75,7.75,0,0,0,6.17-2.93l1.39,1.06Zm22.43-5.77a9.23,9.23,0,1,1-9.35-9.19,9.12,9.12,0,0,1,9.35,9.19m-16.66.08a7.44,7.44,0,0,0,14.87-.08,7.44,7.44,0,1,0-14.87.08M84,187.65a9.23,9.23,0,1,1-9.34-9.19A9.12,9.12,0,0,1,84,187.65m-16.66.08a7.44,7.44,0,0,0,14.88-.08,7.44,7.44,0,1,0-14.88.08M88.7,179h4.06a13.17,13.17,0,0,1,4.07.4,4.34,4.34,0,0,1,2.84,4.23,4.44,4.44,0,0,1-2,3.82c-1.22.81-3.09.9-5.45.9h-1.7v8.12H88.7V179Zm1.71,1.7v5.94h2.92c1.55,0,2.68-.08,3.5-.73a2.9,2.9,0,0,0,1-2.28,2.72,2.72,0,0,0-1.13-2.27,5.42,5.42,0,0,0-3.17-.66Zm14-1.7h10v1.7h-8.29v5.45h8.29v1.71h-8.29v6.91h8.29v1.7h-10Zm14.3,0h4.07a13.1,13.1,0,0,1,4.06.4,4.33,4.33,0,0,1,2.84,4.23,4.22,4.22,0,0,1-.48,2.2c-.9,1.87-2.69,2.52-5.53,2.52l6.34,8.12H127.8l-6.26-8.12h-1v8.12h-1.79V179Zm1.79,1.7v5.94h2.93a5.6,5.6,0,0,0,3.41-.73,2.91,2.91,0,0,0,1.06-2.28c0-1.71-1.14-2.93-3.82-2.93Zm21.38-1.7,8.21,17.55H148.2l-2.77-5.77h-7.56l-2.76,5.77h-2L141.37,179Zm-.25,3.66-3,6.34h6Zm8.62-2V179h9.59v1.7h-3.9v15.77h-1.79V180.65Zm13.09-1.7h1.78V196.5h-1.78Zm24.71,8.7a9.23,9.23,0,1,1-9.35-9.19,9.13,9.13,0,0,1,9.35,9.19m-16.67.08a7.44,7.44,0,0,0,14.88-.08,7.44,7.44,0,1,0-14.88.08m21.38,8.69V179h.41l11.62,13.41V179h1.71v17.47h-.41l-11.54-13.25v13.25Z"/><path class="a6aa6ee2-7b24-4b11-8f7e-676e2bdb9474" d="M4.65,136.27h8.46V200H4.65Z"/><path class="f9e0ace9-8766-4cc1-befb-ae02b38712e3" d="M4.65,136.27H7.58V200H4.65Z"/><path class="a09cf3ac-d854-418e-86d3-463ce8c01a1a" d="M10.18,136.27h2.93V200H10.18Z"/></svg>