<svg xmlns="http://www.w3.org/2000/svg" width="300" height="156.4" viewBox="0 0 300 156.4">
  <defs>
    <style>
      .a {
        fill: #fff;
      }

      .b {
        fill: #9ddae4;
      }

      .c {
        fill: #619fce;
      }

      .d {
        fill: #186bb5;
      }
    </style>
  </defs>
  <g>
    <polygon class="a" points="38.13 138.4 5.5 81.28 5.28 80.89 2.31 80.89 2.31 153.54 5.91 153.54 5.91 89.17 36.85 143.1 37.07 143.49 39.2 143.49 70.36 88.98 70.36 153.54 73.95 153.54 73.95 80.89 70.99 80.89 38.13 138.4"/>
    <path class="a" d="M140.78,105c0-15.11-10.74-24.14-28.72-24.14H87.21v72.65h3.6V129.17h21.25C130,129.17,140.78,120.14,140.78,105Zm-28.51,20.65H90.81V84.38h21.46c16.07,0,24.91,7.34,24.91,20.65S128.34,125.68,112.27,125.68Z"/>
    <path class="a" d="M166.29,80.89h-3l-33.73,72.65h4.06l9.95-21.43H186l10,21.43H200L166.5,81.34Zm18.08,47.74h-39.2l19.6-42.35Z"/>
    <path class="a" d="M238.27,147.33a11.76,11.76,0,0,1-8.19,3c-6.63,0-10-3.6-10-10.69V103h17.78V99.48H220.09V88H216.5V99.48H206.34V103H216.5v37.21c0,8.57,5,13.68,13.47,13.68,4.37,0,8.42-1.5,10.82-4l.53-.56-2.5-2.49Z"/>
    <path class="a" d="M275.87,99.17c-9.67,0-17.23,4.13-21.26,11.47v-34H251v76.91h3.59V124.23c0-13.1,8.39-21.57,21.37-21.57,11.67,0,18.1,6.8,18.1,19.13v31.75h3.6V121.79C297.68,107.62,289.52,99.17,275.87,99.17Z"/>
  </g>
  <path class="b" d="M139.18,66.54H124a25.82,25.82,0,0,1,44.08-18.26L157.42,59a10.68,10.68,0,0,0-18.24,7.55Z"/>
  <path class="c" d="M193.94,66.54H178.8a28.93,28.93,0,0,0-57.86,0H105.8a44.07,44.07,0,0,1,88.14,0Z"/>
  <path class="d" d="M197.05,66.54A46.84,46.84,0,0,1,183.23,99.9l-.51.51L189.51,115l4.42-4.42A62.32,62.32,0,1,0,87.55,66.54h15.14a47.18,47.18,0,0,1,94.36,0Z"/>
</svg>
