<svg id="mpath" data-name="mpath" xmlns="http://www.w3.org/2000/svg" viewBox="0 0 319.08 161.64">
<defs>
  <style>
    .white{fill:#fff;}
    .dark-blue{fill:#9ddae4;}
    .medium-blue{fill:#619fce;}
    .light-blue{fill:#186bb5;}
  </style>
</defs>
<polygon class="white" points="38.7 144.95 3.44 83.25 3.2 82.83 0 82.83 0 161.31 3.89 161.31 3.89 91.77 37.3 150.03 37.55 150.45 39.84 150.45 73.51 91.57 73.51 161.31 77.39 161.31 77.39 82.83 74.19 82.83 38.7 144.95"/>
<path class="white" d="M283.41,210.88c0-16.33-11.59-26.08-31-26.08H225.55v78.49h3.89V237h23C271.82,237,283.41,227.21,283.41,210.88Zm-30.79,22.31H229.44V188.57h23.18c17.36,0,26.91,7.93,26.91,22.31S270,233.19,252.62,233.19Z" transform="translate(-133.83 -101.97)"/>
<path class="white" d="M311,184.8H307.7l-36.44,78.49h4.39l10.75-23.15h45.88L343,263.29h4.38l-36.21-78Zm19.54,51.57H288.16l21.18-45.75Z" transform="translate(-133.83 -101.97)"/>
<path class="white" d="M388.73,256.57a12.66,12.66,0,0,1-8.85,3.28c-7.15,0-10.78-3.89-10.78-11.55V208.65h19.2v-3.77H369.1v-12.4h-3.89v12.4h-11v3.77h11v40.19c0,9.26,5.45,14.78,14.56,14.78,4.73,0,9.1-1.62,11.69-4.32l.58-.6-2.71-2.7Z" transform="translate(-133.83 -101.97)"/>
<path class="white" d="M429.36,204.55c-10.46,0-18.62,4.46-23,12.39V180.2h-3.88v83.09h3.88V231.62c0-14.16,9.06-23.3,23.08-23.3,12.61,0,19.56,7.34,19.56,20.67v34.3h3.88V229C452.91,213.68,444.11,204.55,429.36,204.55Z" transform="translate(-133.83 -101.97)"/>
<path class="dark-blue" d="M281.69,169.3H265.34A27.9,27.9,0,0,1,313,149.57l-11.57,11.58a11.44,11.44,0,0,0-8.16-3.39A11.56,11.56,0,0,0,281.69,169.3Z" transform="translate(-133.83 -101.97)"/>
<path class="medium-blue" d="M340.84,169.3H324.49a31.26,31.26,0,0,0-62.51,0H245.63a47.61,47.61,0,1,1,95.21,0Z" transform="translate(-133.83 -101.97)"/>
<path class="light-blue" d="M344.2,169.3a50.6,50.6,0,0,1-14.93,36l-.55.55,7.34,15.8,4.78-4.79a67.32,67.32,0,1,0-114.93-47.6h16.36a51,51,0,0,1,101.93,0Z" transform="translate(-133.83 -101.97)"/></svg>