<svg id="a22965fa-f472-445b-b2ea-1c7926cec14e" data-name="Layer 1" xmlns="http://www.w3.org/2000/svg" viewBox="0 0 447.1 200"><defs><style>.f68c399f-cc1c-456c-9e45-bd302873d09a{fill:#010101;fill-rule:evenodd;}</style></defs><path class="f68c399f-cc1c-456c-9e45-bd302873d09a" d="M387.4,135.79c-.22-.06-.37-.1-.34-.07s-27.16-3.8-28.65-10.14c-1.6-6.79-10.36-5.16-10.46-10.58-.05-2.7,3.25-1.71,4-2.88,1-1.49-.36-2.12-4.49-4.58-10.88-6.49-9.3-16.71-7.54-18.31,2.29-2.07,5,2.25,6.43.3s-6.63-13,10.36-25.46c0,0,2,6.45,8.2,8.66,6.57,2.35-4.09,11.19-1.77,17.12,1.31,3.33,4-.85,6.39-3.19,2.08-2,5-7.14,8.58-6,3.18,1,2.08,5.13,2.79,7.33.93,2.86,3.23,2,4.47,4.45s.34,3.4-3.29,6.5c-6.63,5.7-3.46,12-1.59,10.79,2.8-1.86,2.27-3.9,6.81-4.15,3.4-.19,4.57,3.14,3.66,5.54s-1.45,3.17-.9,4.89c1.4,4.42.58,3.07-1.73,7.08-2,3.43-1.91,6.65.4,12.13,8.37,4.22,7.36-3.82,14.8-2.13,16.68,3.77,7.62-1.62,10.46-4.37,2.57-2.5,4.08-.29,7.56-1.67,5.14-3.2,5.63-4.28,12.41,1a55.87,55.87,0,0,0,2-56.14c-2.36-2.19-4.31-3.55-3.74,0,.32,1.93,8.93,17.87-4,30.18l0-.34c-.14-1.45-1-7.17-6.08-7.92-6.15-.92-1-10.25-4-14.61-4.22-6.14-5.31,2.29-6.79,4.13s-7.78,5.4-7.78.56c0-5.51-3.89-6.2-5.39-8s-.84-2.64,1.84-5.62c4.92-5.45,1.38-8.87,0-7.62-2.16,1.87-1.65,2.28-5.59,3.12-3,.64-2.82-4.38-2.46-6.42C394,47.66,386.16,43.24,375,43a56.29,56.29,0,1,0,32.75,107.14c-7.9,1.83-12.35-1.16-12.78-2.3-.86-2.25,5.78-.72-.47-3.91a11.92,11.92,0,0,1-5.8-7.44l-1.29-.71"/><path class="f68c399f-cc1c-456c-9e45-bd302873d09a" d="M390.59,137.52s-37.25-14.36-38.54-50.75c0,0,3.6,27.66,38.54,50.75ZM390.31,42a44.57,44.57,0,0,1,17.56,6.55c3.15,2.92,7.61,10.11.72,24.84,0,0,8.82-11.82,6.59-19,7.4,7.36,13.62,19,13.85,37.55C429,92,437.25,45.62,390.31,42Zm37.23,92c-2.84,1.71-7.45,5.75-15,3.39a13,13,0,0,0,7.69,2.13c-6.05,3.09-12.6,3.84-23,1.26,0,0,21,12.3,35.69-11.25a52.86,52.86,0,0,1-5.41,4.47M30.86,84.32c0,4.06.77,5.18,3.67,5.18v1h-12v-1c2.44,0,3.86-.71,3.86-5.36V58.42H21.43c-4.56,0-6.64,1.29-6.93,4.83h-1V55.54h1a4.54,4.54,0,0,0,1.84.94,14.74,14.74,0,0,0,3.26.29H37.38c3,0,4.32-.35,5.39-1.23h1.06v7.71h-.64c-.66-2.83-1.78-4.83-7.17-4.83H30.86Zm36.63,1.17c0,3.18.59,4,3.38,4v1H60v-1c2.86,0,3.5-.65,3.5-3.36V75.85c0-2.78-1.65-4.54-4.2-4.54-2.38,0-4.1,1.12-6.11,4V86.68c0,2.17.89,2.81,3.49,2.81v1H45.39v-1c3.14-.06,3.74-.65,3.74-4V58.36c0-2.71-.78-3.12-3.74-3.12v-1l6.75-.71h1V73.25c2.67-3.06,4.62-4.18,7.34-4.18,3.51,0,7,2.3,7,7.24Zm21.25-8.7c.18-4.6-3-6.48-5.63-6.48-3.5,0-5.58,2.59-5.81,6.48Zm-11.44,1c-.11,9.35,5.51,11.7,8.36,11.7s4.38-1,7.41-4.35v1.54c-2.55,3.23-5,4.46-8.65,4.46-6.58,0-11.33-4.53-11.33-10.83s4.62-11.23,10.55-11.23c4.86,0,9.37,3.88,9.07,8.71Zm69.92,25.36h-1.6L107.67,56.69h-.19v37.5c0,5.41,2.16,7.37,7,7.37v1.59H98.18v-1.59c4.5,0,6.66-1.4,6.66-9.14V61.17c0-6-1.6-9.33-8-9.89V49.69h13.8L144.31,91.3h.18V60.05c0-7-1.88-8.77-6.57-8.77V49.7h16.25v1.58c-5.26,0-6.95,2.15-6.95,8.39v43.48ZM196.89,70h11.56v2.42H196.89V93.73c0,4.57,2.35,6.9,6,6.9,2.45,0,4.24-.94,6.2-3.17l1,1.21c-2.92,3.63-6.3,5.5-10.06,5.5a9.17,9.17,0,0,1-9.58-9.61V72.45h-6.29V70.87c4.5-2.24,8.26-6.25,11.08-11.94h1.6V70ZM246.31,96.9c0,3.64,1.23,4.66,5.74,4.66v1.59l-12.12.65V97.74h-.19c-3.29,4.29-7.14,6.43-11.65,6.43-6.58,0-10.89-4.94-10.89-11.1V76.19c0-3.17-1.13-4.38-5.93-4.38V70.22l10.72-1h1.59v23.6c0,4.67,3,7.46,7.52,7.46,3.19,0,6.1-1.77,8.83-5.4V77c0-4.57-.76-5.13-6.48-5.22V70.22l11.27-1h1.6v27.7Zm20.65,0c0,3.64,1.13,4.66,5.54,4.66v1.59H254.93v-1.59c5.08,0,5.64-1.31,5.64-6.34v-18c0-4.86-1.22-5.41-6.86-5.41V70.22l11.65-1H267v7.19c6.2-5.32,9.11-7.19,11.37-7.19a10.45,10.45,0,0,1,6.11,2.62l-2.54,5.87c-2.72-1.49-5.64-2.89-7.89-2.89s-4.05,1.12-7.05,4Zm42.8-15.49c.28-7.27-4.7-10.26-8.93-10.26-5.54,0-8.83,4.11-9.21,10.26ZM291.62,83c-.18,14.83,8.74,18.56,13.26,18.56s6.94-1.59,11.74-6.9v2.43c-4,5.13-7.9,7.08-13.72,7.08C292.47,104.17,285,97,285,87s7.33-17.82,16.73-17.82c7.7,0,14.84,6.16,14.37,13.81ZM47,116.25c-2-7.54-6.12-10.82-13.08-10.82-9.71,0-14.91,7.75-14.91,18,0,12,6.26,19.9,15.33,19.9,6.33,0,11-2.94,14.07-8.8l1,1c-2.67,6.36-9.07,10.34-16.81,10.34-9.7,0-19.83-6.57-19.83-19.9,0-12.71,8.79-22.07,20.82-22.07,5.06,0,8.86,1.68,11.25,1.68A2.21,2.21,0,0,0,47,104.31h1.13v11.94Zm18.62,4.61c-5.27,0-8.44,4.61-8.44,11.73,0,6.36,2.67,11.67,8.44,11.67S74,138.6,74,132.59C74,126.38,71.36,120.86,65.59,120.86Zm0,24.79c-7.81,0-13.64-5.58-13.64-13.06s5.84-13.13,13.64-13.13,13.64,5.59,13.64,13.13S73.4,145.65,65.59,145.65Zm42.54-6.14c0,3.21.71,4.19,4.22,4.19v1.19H99.06V143.7c3.38,0,4.29-.77,4.29-3.08V127.71a5.33,5.33,0,0,0-5.56-5.66c-2.46,0-4.64,1.54-7.1,4.82V139c0,3.77.49,4.75,4.22,4.75v1.19H81.76V143.7c3.3,0,4.14-.28,4.14-4.75v-13.9c0-3-.77-3.63-4.14-3.63v-1.18l7.73-.77h1.2v5c3-3.35,5.84-5,9-5,4.15,0,8.44,2.94,8.44,8.87v11.18Zm20.59-12.44c-.49-4.11-3.24-6.21-6.19-6.21-2.46,0-4.16,1.33-4.16,3.35,0,6.29,13.09,4.61,13.09,13.83a7.84,7.84,0,0,1-7.88,7.61c-2.74,0-5.13-1.82-6.33-1.82a1.7,1.7,0,0,0-1.62,1.68h-1.19v-8.45h1.19c1.06,5.17,4.93,7.2,8,7.2A4.23,4.23,0,0,0,128,140c0-6.9-13.23-5-13.23-13.4a7.46,7.46,0,0,1,7.6-7.12c2.61,0,3.38,1.19,5.07,1.19.62,0,1.12-.35,1.47-1.19h1.2v7.61h-1.41Zm24,1.54c.21-5.45-3.51-7.68-6.68-7.68-4.15,0-6.61,3.08-6.9,7.68ZM139.1,129.8c-.13,11.1,6.55,13.9,9.92,13.9s5.21-1.19,8.8-5.17v1.81c-3,3.84-5.91,5.31-10.27,5.31-7.81,0-13.44-5.37-13.44-12.85s5.48-13.34,12.52-13.34c5.77,0,11.12,4.62,10.76,10.34Zm30.69,10.41c0,2.72.84,3.49,4.15,3.49v1.19H160.78V143.7c3.8,0,4.22-1,4.22-4.75V125.47c0-3.63-.91-4-5.13-4v-1.18l8.72-.77h1.2v5.37c4.64-4,6.82-5.38,8.51-5.38a7.85,7.85,0,0,1,4.57,2l-1.9,4.4c-2-1.12-4.22-2.17-5.91-2.17s-3,.84-5.27,3v13.55Zm29.68-1.33,4.85-12.51c1.2-3.21,1.2-4.67-2.46-5v-1.18H211v1.18c-2.88.28-3.58.91-4.78,3.56l-8,20.46H197L189.06,126c-1.69-4-2.33-4.47-5.28-4.61v-1.18h12v1.18c-2.39.21-3,1.54-1.9,4.26l5.55,13.19Zm61.18.63c0,3.21.7,4.19,4.22,4.19v1.19H251.58V143.7c3.37,0,4.29-.77,4.29-3.08V127.71a5.33,5.33,0,0,0-5.56-5.66c-2.46,0-4.64,1.54-7.1,4.82V139c0,3.77.49,4.75,4.22,4.75v1.19H234.27V143.7c3.31,0,4.16-.28,4.16-4.75v-13.9c0-3-.78-3.63-4.16-3.63v-1.18l7.74-.77h1.2v5c2.95-3.35,5.83-5,9-5,4.15,0,8.44,2.94,8.44,8.87v11.18Zm27.68-11.32h-1.2c-1.06-4.46-4.22-7.33-8.37-7.33-4.92,0-8.37,4.19-8.37,10.26,0,6.78,4.29,12.44,9.36,12.44a11.88,11.88,0,0,0,9.28-5.17v1.82a13.08,13.08,0,0,1-11,5.44c-7.39,0-12.52-5.1-12.52-12.5,0-7.61,5.77-13.68,12.87-13.68,3.73,0,5.77,1.39,7,1.39a2,2,0,0,0,1.69-1.4h1.2v8.73Zm17.86,11,4.37-13.05c1-2.94.77-4.54-2-4.68v-1.18h8.79v1.18c-2.67,0-4.29,1.68-5.7,5.8l-9.91,29.12c-2,5.72-5.21,9-8.24,9a5.44,5.44,0,0,1-3.09-1l1.62-4.26a5.34,5.34,0,0,0,2.39.56c3,0,4.78-1.75,6.33-6.08l3.24-8.94-8.94-20.46c-1.27-2.86-2.18-3.63-5.07-3.7v-1.18h12v1.18c-1.9.28-2.67,1.68-1.75,3.77l6,14h0ZM173.26,96.43c-1.32,2.8-4.89,4.2-6.86,4.2-2.73,0-5.07-2.71-5.07-6.07,0-6.72,5.63-6.62,11.93-9.32V96.43Zm6.37-.48,0-14.63c0-9-6.48-12.13-12-12.13-6,0-10.9,4-12.31,10.17l1.69.46c1.42-4.75,5.07-7.08,8.84-7.08,4.69,0,7.42,3.36,7.42,8v2.42c-5.45,3.18-18.42,2.8-18.42,12.22,0,4.85,4.32,8.77,9.49,8.77,3.48,0,6-1.36,9.32-4.91h0v4h11.67v-1.61C180.59,101.62,179.63,100.29,179.63,96Zm44.77,43.88a6.19,6.19,0,0,1-5.08,3.11c-2,0-3.77-2-3.77-4.49,0-5,4.18-4.91,8.85-6.92Zm4.72-.36,0-10.85c0-6.63-4.81-9-8.92-9a9.28,9.28,0,0,0-9.13,7.54l1.26.35a6.82,6.82,0,0,1,6.55-5.26c3.48,0,5.5,2.49,5.5,6V130c-4,2.35-13.65,2.08-13.65,9.06,0,3.59,3.2,6.49,7,6.49,2.58,0,4.47-1,6.91-3.63h0v2.94h8.64v-1.19c-3.52,0-4.23-1-4.23-4.2h0Z"/></svg>