<svg id="a1bb647b-6d3d-41be-b2e0-3230ce828d4f" data-name="Layer 1" xmlns="http://www.w3.org/2000/svg" viewBox="0 0 282.14 200"><defs><style>.eb190145-c7da-4021-9630-3e516827951e{fill:#010101;}</style></defs><path class="eb190145-c7da-4021-9630-3e516827951e" d="M21.06,82.5c0,5.77,2.76,9.07,8.15,9.07,5.87,0,9.31-2.48,9.31-9.46V66.49c0-2.81-1.55-3.34-4.75-3.44V60.72H46.42v2.33c-3.2.1-4.56.63-4.56,3.44V83.18c0,8.19-6.06,12-13.14,12-8.54,0-13.87-3.84-13.87-12.08V66.49c0-2.81-1.36-3.34-4.56-3.44V60.72H25.62v2.33c-3.21.1-4.56.63-4.56,3.44v16Z"/><path class="eb190145-c7da-4021-9630-3e516827951e" d="M68.65,76.73c0-3-1.22-4.22-4.08-4.22a11.7,11.7,0,0,0-6.35,2.08V89.82c0,2.23,1.21,2.48,3.39,2.77v2.18H48.86V92.59c2.13-.29,3.49-.54,3.49-2.77V74L49.1,71.92V70.71l7.76-2.52h1.36v5c2.23-2.33,5.24-4.85,9.31-4.85,4.36,0,7,2.37,7,7.95V89.82c0,2.23,1.31,2.48,3.5,2.77v2.18H65.2V92.59c2.18-.29,3.45-.54,3.45-2.77V76.73Z"/><path class="eb190145-c7da-4021-9630-3e516827951e" d="M90.38,89.82c0,2.23,1.31,2.48,3.49,2.77v2.18H81V92.59c2.13-.29,3.49-.54,3.49-2.77V73.91l-3.25-2V70.71L89,68.29h1.36V89.82ZM83.54,61.74a3.71,3.71,0,1,1,3.73,3.64,3.62,3.62,0,0,1-3.73-3.64Z"/><path class="eb190145-c7da-4021-9630-3e516827951e" d="M122.15,70.91c-2,.77-2.33.87-2.81,1.94l-9.85,22.31h-1.55L97.66,72.85c-.49-1-.78-1.17-2.82-1.94V68.77H107.7v2.14c-2.52.34-3.45.58-3.45,1.74a3.27,3.27,0,0,0,.39,1.41L110,87.25l5.53-13.19a4.08,4.08,0,0,0,.33-1.41c0-1.16-.92-1.4-3.39-1.74V68.77h9.65v2.14Z"/><path class="eb190145-c7da-4021-9630-3e516827951e" d="M145,79.2v1.6H128.08c0,5.87,3.29,9.8,8.43,9.8A8.83,8.83,0,0,0,144,86.67l1.07.63c-1.21,4.71-4.9,8-10.57,8-7.13,0-11.64-5.38-11.64-12.66,0-8.58,5.24-14.3,12.12-14.3,6.6,0,10,4.65,10,10.91Zm-16.78-.87h11.3c0-4.47-1.79-7.38-5.33-7.38s-5.58,3.45-6,7.38Z"/><path class="eb190145-c7da-4021-9630-3e516827951e" d="M158.1,76.14c2.77-5.91,4.22-7.85,7.33-7.85a2.83,2.83,0,0,1,1.89.63v5.33h-1.07a9.49,9.49,0,0,0-8.15,3.49v12c0,2.32,1.17,2.47,4.46,2.86v2.18H148.74V92.59c2.14-.29,3.49-.54,3.49-2.77V74L149,71.92V70.71l7.71-2.52h1.4v8Z"/><path class="eb190145-c7da-4021-9630-3e516827951e" d="M170.18,92.73l-.29-6.25h2.52c.93,4,3.21,6.3,7.09,6.3,2.86,0,4.7-1.31,4.7-3.64,0-2.76-1.94-3.73-6.3-4.94-4.91-1.41-7.77-3.45-7.77-8.06s3.5-7.85,9-7.85a16,16,0,0,1,8.24,2.08v5.82h-2.47c-.73-3.54-2.67-5.38-6-5.38-2.52,0-4,1.5-4,3.49,0,2.38,1.6,3.64,5.57,4.71,5,1.35,8.45,3,8.45,8.14,0,4.81-3.59,8.1-9.61,8.1a15.55,15.55,0,0,1-9.17-2.52Z"/><path class="eb190145-c7da-4021-9630-3e516827951e" d="M202,89.82c0,2.23,1.3,2.48,3.49,2.77v2.18H192.64V92.59c2.14-.29,3.5-.54,3.5-2.77V73.91l-3.25-2V70.71l7.76-2.42H202V89.82Zm-6.85-28.08a3.72,3.72,0,1,1,3.74,3.64,3.63,3.63,0,0,1-3.74-3.64Z"/><path class="eb190145-c7da-4021-9630-3e516827951e" d="M217,68.77h7.12v2.91H217V88c0,2.57,1.11,3.49,3.58,3.49a9.68,9.68,0,0,0,4.18-1l.63,1.51a10.47,10.47,0,0,1-7.86,3.24c-3.88,0-6.36-1.84-6.36-6.3V71.68h-3.49V69.84a22,22,0,0,0,7.57-6.79H217v5.72Z"/><path class="eb190145-c7da-4021-9630-3e516827951e" d="M247.85,88.42c0,1.94.63,3,2,3a11.16,11.16,0,0,0,2.23-.29l.29,1.55a7.72,7.72,0,0,1-5.53,2.52c-2.57,0-4-1.79-4.56-4.41-1.7,2-4.32,4.37-8,4.37-4.31,0-6.54-2.91-6.54-6.65,0-4.46,3.44-6,6.69-7.13l7.71-2.76V76.1c0-3.16-1-5.29-4.17-5.29-2.38,0-3.54,1.16-3.54,3.39a11.46,11.46,0,0,0,.34,2.77l-4.27.63a3.18,3.18,0,0,1-1.36-2.86c0-4.22,4.13-6.45,9.7-6.45,6,0,9.17,2.66,9.17,8.87,0,1.17-.14,9.75-.14,11.26Zm-5.73,1.11V81l-5.67,2.19a3.9,3.9,0,0,0-2.81,3.83c0,2.67,1.3,4.17,3.63,4.17a7.66,7.66,0,0,0,4.85-1.7Z"/><path class="eb190145-c7da-4021-9630-3e516827951e" d="M262.5,68.77h7.13v2.91H262.5V88c0,2.57,1.11,3.49,3.59,3.49a9.61,9.61,0,0,0,4.17-1l.63,1.51A10.44,10.44,0,0,1,263,95.25c-3.88,0-6.35-1.84-6.35-6.3V71.68h-3.5V69.84a22,22,0,0,0,7.57-6.79h1.75v5.72Z"/><path class="eb190145-c7da-4021-9630-3e516827951e" d="M29.79,142.63c-1.85,2.66-4.27,4.46-8,4.46-6.4,0-10.23-5.14-10.23-12.23,0-9.11,5.53-14.64,12.66-14.64a7,7,0,0,1,5.58,2.23v-7.18l-3.3-2.09V112l7.86-2.28h1.31v31.14c0,1.65.48,2.14,2.47,2.33l1.21.1v2.18l-8.49,1.65H29.79v-4.46Zm-12.32-9.8c0,5.63,2.33,10.23,7.08,10.23a8,8,0,0,0,5.24-1.89V128.9c0-4.17-2-6.16-5.39-6.16-4.27,0-6.93,4.12-6.93,10.09Z"/><path class="eb190145-c7da-4021-9630-3e516827951e" d="M64.57,131v1.6H47.64c0,5.87,3.3,9.8,8.44,9.8a8.86,8.86,0,0,0,7.47-3.93l1.07.63c-1.21,4.71-4.9,8-10.58,8-7.13,0-11.64-5.38-11.64-12.66,0-8.59,5.24-14.31,12.13-14.31,6.6,0,10,4.66,10,10.91Zm-16.78-.87h11.3c0-4.46-1.8-7.37-5.34-7.37s-5.58,3.44-6,7.37Z"/><path class="eb190145-c7da-4021-9630-3e516827951e" d="M96.15,112.07c5,0,8.68,1.31,11,3.2v7.57h-2.62c-1.31-5.39-4.31-8-8.63-8-7.13,0-10.33,6.5-10.33,14,0,8.73,3.39,15.33,10.81,15.33,2.53,0,4.08-.44,5.58-1.65v-6.65c0-2.76-1.31-3.3-4.41-3.44v-2.28H112v2.28c-3.1.14-4.17.68-4.17,3.44v7.67a20.83,20.83,0,0,1-12.08,3.49c-10.62,0-16.87-7-16.87-16.78,0-11.31,7.85-18.24,17.31-18.24Z"/><path class="eb190145-c7da-4021-9630-3e516827951e" d="M124.19,141.66c0,2.23,1.31,2.47,3.49,2.76v2.18H114.83v-2.18c2.14-.29,3.49-.53,3.49-2.76V125.75l-3.25-2v-1.16l7.76-2.43h1.36v21.54Zm-6.84-28.09a3.71,3.71,0,1,1,3.74,3.64,3.63,3.63,0,0,1-3.74-3.64Z"/><path class="eb190145-c7da-4021-9630-3e516827951e" d="M140.44,128c2.77-5.92,4.22-7.86,7.33-7.86a2.83,2.83,0,0,1,1.89.63v5.34h-1.07a9.46,9.46,0,0,0-8.15,3.49v12c0,2.33,1.17,2.47,4.47,2.86v2.18H131.08v-2.18c2.14-.29,3.49-.53,3.49-2.76V125.84l-3.25-2.08v-1.21L139,120h1.4v8Z"/><path class="eb190145-c7da-4021-9630-3e516827951e" d="M152.14,134.09c0-8.49,5.62-14,12.7-14,7.47,0,12.32,5.53,12.32,13,0,8.49-5.67,14-12.75,14-7.47,0-12.27-5.53-12.27-13Zm19,.24c0-6.3-2.52-11.44-6.89-11.44-4,0-6,4.07-6,10,0,6.3,2.47,11.4,6.89,11.4,4,0,6-4,6-9.95Z"/><path class="eb190145-c7da-4021-9630-3e516827951e" d="M200.64,128.56c0-3-1.21-4.22-4.07-4.22a11.68,11.68,0,0,0-6.36,2.09v15.23c0,2.23,1.22,2.47,3.4,2.76v2.18H180.85v-2.18c2.14-.29,3.49-.53,3.49-2.76V125.84l-3.25-2.08v-1.21l7.77-2.53h1.35v5c2.24-2.33,5.24-4.85,9.32-4.85,4.36,0,7,2.38,7,7.95v13.59c0,2.23,1.31,2.47,3.49,2.76v2.18H197.2v-2.18c2.18-.29,3.44-.53,3.44-2.76v-13.1Z"/><path class="eb190145-c7da-4021-9630-3e516827951e" d="M233.24,140.25c0,1.94.63,3.05,2,3.05a10.32,10.32,0,0,0,2.23-.29l.29,1.56a7.69,7.69,0,0,1-5.53,2.52c-2.57,0-4-1.8-4.55-4.41-1.7,2-4.32,4.36-8,4.36-4.32,0-6.55-2.91-6.55-6.65,0-4.46,3.45-6,6.7-7.12l7.71-2.77v-2.57c0-3.15-1-5.29-4.17-5.29-2.38,0-3.54,1.17-3.54,3.4a11.44,11.44,0,0,0,.34,2.76l-4.27.63a3.18,3.18,0,0,1-1.36-2.86c0-4.22,4.13-6.45,9.7-6.45,6,0,9.17,2.67,9.17,8.88,0,1.16-.15,9.75-.15,11.25Zm-5.72,1.11v-8.48l-5.67,2.18a3.93,3.93,0,0,0-2.82,3.83c0,2.67,1.31,4.17,3.64,4.17a7.66,7.66,0,0,0,4.85-1.7Z"/><path class="eb190145-c7da-4021-9630-3e516827951e" d="M62.75,16.52c1.12,5.37,4,9.29,11.2,9.29H98.82c8.85,0,14.34,7.62,14.34,18.26H110.8c-.67-6.38-3.47-10.19-11-10.19H74.73c-7.61,0-10.3-3.81-12.54-11.32C60,30.07,57.26,33.88,49.64,33.88H24.55c-7.51,0-10.31,3.81-11,10.19H11.22c0-10.64,5.49-18.26,14.34-18.26H50.42c7.17,0,10.09-3.92,11.21-9.29Z"/><path class="eb190145-c7da-4021-9630-3e516827951e" d="M61.6,194.51c-1.12-5.37-4-9.3-11.2-9.3H25.53c-8.85,0-14.34-7.61-14.34-18.25h2.35c.68,6.38,3.48,10.19,11,10.19H49.61c7.62,0,10.31,3.81,12.55,11.31,2.24-7.5,4.93-11.31,12.55-11.31H99.8c7.5,0,10.31-3.81,11-10.19h2.35c0,10.64-5.49,18.25-14.34,18.25H73.92c-7.17,0-10.08,3.93-11.2,9.3Z"/></svg>