<svg id="fe88d87f-2fd8-4bbe-8fc9-22ba85286cdb" data-name="Layer 1" xmlns="http://www.w3.org/2000/svg" viewBox="0 0 473.5 200"><defs><style>.a02ba8d9-22a9-4740-b182-201f45489f0b{fill:#010101;}</style></defs><path class="a02ba8d9-22a9-4740-b182-201f45489f0b" d="M243.44,165.56l-4.22-6.15a4.54,4.54,0,0,0,2.2-1.61,4.93,4.93,0,0,0,1-2.65,4.47,4.47,0,0,0-1-3.13,7.82,7.82,0,0,0-3-1.46,7.58,7.58,0,0,0-3.25-.09h-4v1h.39c.71,0,1.07.47,1.07,1.44v12c0,1.27-.58,1.44-1.07,1.44h-.39v1h5.74v-1h-.34c-.78,0-1.1-.42-1.1-1.44v-5H236l5.21,7.54h3.68v-1h-.34C244,166.42,243.78,166,243.44,165.56Zm-4.07-10.41a3.2,3.2,0,0,1-.85,2.23,3,3,0,0,1-1,.68,2.77,2.77,0,0,1-1.13.25h-1v-6a1.49,1.49,0,0,1,1-.16,2.68,2.68,0,0,1,1.11.19,3,3,0,0,1,1,.64,3.08,3.08,0,0,1,.64,1A3.14,3.14,0,0,1,239.37,155.15Zm67.47-3.63h.39c.5,0,1.1.17,1.1,1.44v12c0,1-.34,1.44-1.1,1.44h-.39v1h5.74v-1h-.31c-.79,0-1.12-.41-1.12-1.44V153c0-1.27.65-1.44,1.12-1.44h.31v-1.05h-5.74Zm-87.63-1.05H207.14a.3.3,0,0,0-.23.11.36.36,0,0,0-.11.25v4h.71v-.25c0-1.6.59-2.38,1.59-2.38h2.6V165c0,.94-.36,1.33-1.17,1.33h-.31v1h5.68v-1h-.29c-.8,0-1.12-.36-1.12-1.33V152.32h2.61c.65,0,1.44.25,1.56,2.38V155h.87l-.19-4.05a.39.39,0,0,0,0-.24.41.41,0,0,0-.14-.21Zm-49.31,1h.65a.61.61,0,0,1,.3.05.83.83,0,0,1,.26.19.76.76,0,0,1,.19.61v9.56a4.18,4.18,0,0,1-.32,1.56,4.08,4.08,0,0,1-.89,1.29,3.64,3.64,0,0,1-1.29.82,3.57,3.57,0,0,1-1.49.21,3.36,3.36,0,0,1-2.48-1.28,3.55,3.55,0,0,1-.67-1.31,3.89,3.89,0,0,1-.13-1.48v-8.84a1.32,1.32,0,0,1,.3-.85,1.18,1.18,0,0,1,.74-.45h.31v-1.05H159.8v1H160a1.12,1.12,0,0,1,.76.43,1.23,1.23,0,0,1,.28.87v8.81a6.5,6.5,0,0,0,.45,2.39,6,6,0,0,0,1.33,2,5.58,5.58,0,0,0,2,1.26,5.2,5.2,0,0,0,2.28.31,5,5,0,0,0,4.08-1.38,5.33,5.33,0,0,0,1.28-1.88,5.76,5.76,0,0,0,.45-2.28v-9.58c0-.39,0-.86.71-.86h.7v-1.05H169.9Zm124.53,11.07c-.6,2.14-1.59,3.11-3.21,3.11h-3.39c-.26,0-.55-.42-.55-.78V152.93c0-1.05.37-1.52,1.15-1.52h.34v-.94h-5.63v1h.33c.29,0,1.1,0,1.1,1.52v11.91c0,1.33-.63,1.47-1.1,1.47h-.33v1h11l1.33-5h-.91Zm-104.32-6-.29-.16a3,3,0,0,1-1.07-1,3,3,0,0,1-.49-1.4,2.07,2.07,0,0,1,.28-1,2,2,0,0,1,.73-.74,2.19,2.19,0,0,1,2.43,0,4.34,4.34,0,0,1,1.4,1.6,4.5,4.5,0,0,1,.5,2.11v.28h.86v-5.76h-.86v.19a.75.75,0,0,1-.26.53.92.92,0,0,1-.76,0,4.12,4.12,0,0,0-5.39.44,4.92,4.92,0,0,0-1,1.76,5.17,5.17,0,0,0-.24,2.06,4.66,4.66,0,0,0,.6,1.9,4.55,4.55,0,0,0,1.33,1.43l1.15.8a11.69,11.69,0,0,1,3.23,2.77,2.42,2.42,0,0,1-.36,3.16,2.19,2.19,0,0,1-2.61.3,4.53,4.53,0,0,1-1.68-1.74,4.81,4.81,0,0,1-.59-2.41v-.11h-.91v6h.57v-.22a.66.66,0,0,1,.12-.33.72.72,0,0,1,.24-.25.59.59,0,0,1,.55,0,6.25,6.25,0,0,0,3.08.89,4.09,4.09,0,0,0,2.61-1,4.79,4.79,0,0,0,1.6-2.64,4.92,4.92,0,0,0-.33-3.12,12.32,12.32,0,0,0-4.48-4.3l.08-.11Zm80,8.64-5.72-14.71a.57.57,0,0,0-.39-.35.46.46,0,0,0-.28,0,.53.53,0,0,0-.21.21L258.07,165c-.26.58-.68,1.3-1.28,1.3h-.52v1h4.36v-1h-.42a.68.68,0,0,1-.31-.08.66.66,0,0,1-.24-.23.49.49,0,0,1,0-.44L261,162.1h4.87l1.33,3.46a.55.55,0,0,1,0,.5.52.52,0,0,1-.44.25h-.65v1h5.58v-1h-.39c-.52.11-.89-.28-1.17-1.14Zm-5-4.7h-3.6l1.78-4.46ZM339,166.42c-.44,0-.81-.39-1.12-1.25l-5.71-14.71s0-.32-.4-.35a.46.46,0,0,0-.28,0,.53.53,0,0,0-.21.21L325.83,165c-.23.58-.68,1.3-1.28,1.3H324v1h4.38v-1H328a.73.73,0,0,1-.33-.08.61.61,0,0,1-.25-.23.4.4,0,0,1-.06-.22.46.46,0,0,1,.06-.22l1.3-3.46h4.86l1.35,3.46a.55.55,0,0,1,0,.5.48.48,0,0,1-.44.25h-.63v1h5.56v-1l-.42.11Zm-6.08-5.95H329.3l1.8-4.57,1.82,4.56Zm-186,4.7-5.71-14.71a.69.69,0,0,0-.16-.22.59.59,0,0,0-.23-.13.71.71,0,0,0-.5.25L134.84,165c-.26.58-.67,1.3-1.27,1.3h-.52v1h4.38v-1h-.34a.65.65,0,0,1-.31-.08.59.59,0,0,1-.24-.23.49.49,0,0,1,0-.44l1.33-3.46h4.69l1.33,3.46a.62.62,0,0,1,0,.5.55.55,0,0,1-.19.18.55.55,0,0,1-.25.07h-.65v1h5.58v-1H148c-.47.11-.83-.28-1.17-1.14Zm-5-4.7h-3.6l1.78-4.46ZM386.83,55.91l1.85,1.28a22.85,22.85,0,0,1,5.84,4.65,3.82,3.82,0,0,1,.71,1.46,4.24,4.24,0,0,1-.47,3.19,3.69,3.69,0,0,1-1.1,1.16,4,4,0,0,1-2.25,1.11,3.86,3.86,0,0,1-2.44-.5,8,8,0,0,1-3-3A8.64,8.64,0,0,1,384.85,61v-.39h-1.46V71.11h1.46v-.27a1.73,1.73,0,0,1,.81-1.14.87.87,0,0,1,.88,0,10.27,10.27,0,0,0,5.22,1.53,7.35,7.35,0,0,0,3.77-1,7.86,7.86,0,0,0,2.84-2.8,8.61,8.61,0,0,0,.43-8c-1.51-3.21-5.22-5.54-8.79-7.62a4.8,4.8,0,0,1-1.72-1.6,5.29,5.29,0,0,1-.83-2.27,4.06,4.06,0,0,1,.45-1.9,3.79,3.79,0,0,1,1.27-1.42,4,4,0,0,1,4.4.24,7.43,7.43,0,0,1,2.48,2.79,8,8,0,0,1,.86,3.72v.39h1.36V41.65H397V42a1.07,1.07,0,0,1-.4.83,1.76,1.76,0,0,1-1.51-.22c-3.88-2-6.83-1.69-9.33.86a8.23,8.23,0,0,0-1.83,3,8.54,8.54,0,0,0-.44,3.58,8,8,0,0,0,1.08,3.35,7.47,7.47,0,0,0,2.38,2.49Zm-33.64,6.73h-1.51v.28c-1,3.65-2.79,5.29-5.67,5.29h-6.46a1,1,0,0,1-.68-.3,1,1,0,0,1-.26-.73V57h7c1.2,0,1.54,1.47,1.54,2.33v.55h1.18V51.15h-1.46v.58c0,.88-.42,2.3-1.54,2.3h-6.91V44.39H346c1.83,0,3.11,1.66,3.24,4.24V49h1.38l-.55-7.36H331v1.58h.52c1.35,0,1.95.8,1.95,2.6v21.1c0,1.83-.57,2.61-1.95,2.61H331v1.57h19.66l2.56-8.47Zm61.13,6.9h-.52c-1.38,0-2-.81-2-2.61V45.83c0-1.77.63-2.6,2-2.6h.52V41.65h-10v1.58H405c1.36,0,2,.8,2,2.6v21.1c0,1.83-.6,2.61-2,2.61h-.62v1.57h10Zm-243.75,0h-.52c-1.33,0-1.93-.81-1.93-2.61V57.49h10.23v9.44c0,1.83-.6,2.61-2,2.61h-.52v1.57h10V69.54h-.74c-1.38,0-1.95-.78-1.95-2.61V45.83c0-1.8.6-2.6,1.95-2.6h.63V41.65h-10v1.58h.52c1.38,0,2,.83,2,2.6v8.8H168v-8.8c0-1.75.62-2.6,1.93-2.6h.52V41.65h-9.91v1.58h.52c1.41,0,2,.74,2,2.6v21.1c0,1.91-.52,2.61-2,2.61h-.52v1.57h9.91l.1-1.57Zm41.24-6.9h-1.7v.28c-1,3.65-2.61,5.29-5.68,5.29H198a1,1,0,0,1-.93-1V57h7.06c1,0,1.49,1.19,1.49,2.33v.55h1.46V51.15H205.6v.58c0,1-.47,2.3-1.49,2.3h-7V44.39h7.62c1.85,0,3.1,1.61,3.23,4.24V49h1.36l-.47-7.36h-19.2v1.58h.52c1.39,0,2,.83,2,2.6v21.1c0,1.8-.62,2.61-2,2.61h-.52v1.57h19.72Zm234-17.25,7.83,13.32V67c0,1.88-.6,2.77-2,2.77h-.49v1.57h10.06V69.59h-.65c-1.48,0-2.06-.69-2.06-2.55V58.51l6.94-13.29a3.34,3.34,0,0,1,1.06-1.37,3.26,3.26,0,0,1,1.55-.63h.34V41.64h-7v1.64h1a.55.55,0,0,1,.29.13.84.84,0,0,1,.18.28.94.94,0,0,1,0,.92l-5.59,10.63-6.1-10.44a1.13,1.13,0,0,1-.13-.54,1.11,1.11,0,0,1,.13-.54.77.77,0,0,1,.63-.44h.94V41.64h-9.81v1.64h.37c.65,0,1.48.25,2.4,2.1h.15ZM262.27,44c.34.41.6.77.89,1.16l.73.94V67.79a1.73,1.73,0,0,1-.18.71,1.76,1.76,0,0,1-.43.58,1.66,1.66,0,0,1-1.3.4h-.62v1.63h7.82V69.48h-.52a1.82,1.82,0,0,1-2-1.69V49.87L283.14,71h1.07V45a2,2,0,0,1,.61-1.34,1.73,1.73,0,0,1,1.34-.44h.52V41.65h-7.82v1.58h.57a1.6,1.6,0,0,1,1.32.44,2,2,0,0,1,.59,1.33V60.29L267,41.65h-7v1.58h.33c1,0,1.62,0,2.06.71h-.05Zm43,1.44L315,70.7a1,1,0,0,0,.78.41.7.7,0,0,0,.39-.13.93.93,0,0,0,.26-.33l8.89-25.21c.71-1.66,1.25-2.3,2-2.3h.36V41.65h-6.52v1.58H322a.94.94,0,0,1,.44.13,1.19,1.19,0,0,1,.34.33,1.13,1.13,0,0,1,0,.92l-6,16.78-6.47-16.78a.83.83,0,0,1-.11-.46.86.86,0,0,1,.11-.45.89.89,0,0,1,.7-.47h1.23V41.65h-9.44v1.58h.36c.81,0,1.41.66,2,2.16ZM228.94,39V58.6c0,7.64,5.4,13,13,13s12.78-5.12,12.78-12.54V38.16c0-1.47.6-2.14,1.85-2.14h1.44V34.14H248V36h1.59c1.15,0,1.8.75,1.8,2.14V59.07a9.15,9.15,0,0,1-.69,3.51,8.72,8.72,0,0,1-2,2.93,8.21,8.21,0,0,1-2.89,1.85,8,8,0,0,1-3.35.46c-4.43,0-7.54-3.77-7.54-9.17V39a3.25,3.25,0,0,1,.14-1.12,2.93,2.93,0,0,1,.56-1,2.65,2.65,0,0,1,.87-.65,2.5,2.5,0,0,1,1-.23h.78V34.14H225.76V36h.73a2.49,2.49,0,0,1,1.91.88,2.86,2.86,0,0,1,.7,2.09Zm70.91,30.46h-.47c-1.38,0-2-.8-2-2.6v-21c0-1.77.65-2.6,2-2.6h.47V41.65H290v1.58h.47c1.46,0,2.12.8,2.12,2.6v21.1c0,1.83-.63,2.61-2.12,2.61H290v1.57h9.86Zm140.37-27.8H419a.56.56,0,0,0-.36.19.68.68,0,0,0-.16.39l-.24,7h1.31v-.37c.15-2.77,1.09-4.26,2.87-4.26h4.79V67.13c0,1.69-.62,2.41-2.11,2.41h-.47v1.57h9.86V69.54h-.47c-1.43,0-2-.67-2-2.41V44.61h4.78c1.09,0,2.6.44,2.79,4.26v.37H441l-.28-7a.65.65,0,0,0-.16-.4.59.59,0,0,0-.37-.18Zm-76.76,3a3.41,3.41,0,0,1,1.8-.31,5.09,5.09,0,0,1,3.63,1.56,5.53,5.53,0,0,1,.06,7.7,5.07,5.07,0,0,1-3.69,1.63h-1.8V44.64Zm2.61,24.93h-.52c-1.38,0-2-.81-2-2.61V57.9h1.12l9,13.21H380V69.54h-.52c-.74,0-1.28-.75-1.91-1.55L370.11,57.1A7.79,7.79,0,0,0,374,54.32a8.57,8.57,0,0,0,1.69-4.65,7.5,7.5,0,0,0-.39-3,7.22,7.22,0,0,0-1.48-2.56c-1.93-2-5.43-2.77-10.64-2.58h-7v1.58h.63c1.3,0,1.95.86,1.95,2.77V67c0,1.8-.6,2.6-1.95,2.6h-.63v1.58h10l-.05-1.61ZM184.24,96.24H163.92v1.6h.53c1.38,0,2,.84,2,2.77v21c0,1.8-.62,2.61-2,2.61h-.53v1.52h10v-1.52h-.63c-1.36,0-2-.75-2-2.55v-10h7.12c1.41,0,1.47,2,1.47,2.36v.41h1.54v-8.72H180v.58c0,.39,0,2.3-1.46,2.3H171.3V99h8.84c1.8,0,3.11,1.71,3.26,4.26v.39h1.33l-.49-7.42Zm78,27.94h-.52v1.53h19.72l2.32-8.51h-1.46v.28c-1.05,3.71-2.79,5.37-5.66,5.37H270.1a1,1,0,0,1-.75-.31,1.12,1.12,0,0,1-.3-.79V111.69h7.12c1,0,1.54,1.19,1.54,2.36v.41h1.36v-8.75h-1.36v.58c0,1.14-.55,2.33-1.54,2.33h-7.12V99h7.62c1.93,0,3.21,1.63,3.29,4.23v.39h1.3l-.47-7.39H261.72v1.6h.55c1.41,0,2,.81,2,2.77v21.11c0,1.8-.6,2.6-2,2.6Zm66.24-26.34H329a1.83,1.83,0,0,1,1.34.44,2.08,2.08,0,0,1,.67,1.31v15.34L316.67,96.4h-7.19v1.44h.36c1.1,0,1.67.2,2,.69l.39.48c.44.52.8,1,1.35,1.69v21.68a1.92,1.92,0,0,1-.62,1.33,1.72,1.72,0,0,1-1.33.44H311v1.58h7.83v-1.58h-.53a1.55,1.55,0,0,1-.71-.06,1.75,1.75,0,0,1-.63-.37,1.85,1.85,0,0,1-.61-1.34V104.44l16.3,21.1v.14h1.07V99.56a1.83,1.83,0,0,1,.6-1.3,1.65,1.65,0,0,1,1.3-.44h.55V96.24h-7.82l.12,1.6Zm52.16,19.39v.28c-1,3.79-2.79,5.54-5.65,5.54h-6c-.49,0-1-.72-1-1.42v-21c0-1.88.66-2.77,2.06-2.77h.53V96.26h-10v1.58h.58c1.3,0,1.95.89,1.95,2.77v20.91c0,2.39-1.12,2.77-1.95,2.77h-.58v1.58H380l2.29-8.64Zm83.05-6.2c0,7.72-4.07,12.16-11.12,12.16a7.16,7.16,0,0,1-2.16-.28v-24a3.41,3.41,0,0,1,2.11-.27,9.62,9.62,0,0,1,4.6.65A10.09,10.09,0,0,1,461,102a14.57,14.57,0,0,1,2.61,8.86l.11.14Zm1.22-10.28A15,15,0,0,0,459.27,97a14.3,14.3,0,0,0-6.61-.8H442.54v1.6h.57c.84,0,2,.31,2,2.77v20.91c0,1.83-.6,2.77-2,2.77h-.57v1.58h12.25a12.85,12.85,0,0,0,5.26-1.13,13.59,13.59,0,0,0,4.44-3.21,14.55,14.55,0,0,0,2.92-4.78,17.35,17.35,0,0,0-2.34-15.83l-.13-.17Zm-72.76,13.07,3.23-8.3,3.21,8.3Zm15,8.31-9.91-25.62a1.07,1.07,0,0,0-.65-.63.84.84,0,0,0-.47.08.89.89,0,0,0-.36.33L386.26,122c-.45,1.08-1.2,2.35-2.3,2.35h-.86v1.58h7.54v-1.58H390a1.25,1.25,0,0,1-.57-.16,1.51,1.51,0,0,1-.45-.42,1,1,0,0,1,0-.83l2.35-6.15h8.61l2.37,6.12a1,1,0,0,1-.36,1.3,1.11,1.11,0,0,1-.47.14h-1.05v1.58H410v-1.58h-.65c-.78,0-1.46-.72-2-2.22Zm24-24.09h.34a1.77,1.77,0,0,1,1.34.43,2,2,0,0,1,.67,1.31v15.35L419.17,96.6H412.1v1.25h.34c1.07,0,1.62.19,2,.69l.39.47,1.33,1.69v21.68a2.06,2.06,0,0,1-.18.74,2.16,2.16,0,0,1-.44.6,1.73,1.73,0,0,1-1.34.44h-.52v1.58h7.83v-1.58H421a1.75,1.75,0,0,1-1.38-.42,2,2,0,0,1-.63-1.36V104.44l15.83,21.1v.14h1.07V99.56a1.83,1.83,0,0,1,.6-1.3,1.65,1.65,0,0,1,1.3-.44h.63V96.24h-7.64l.36,1.8ZM306.61,117.48c-1,3.77-2.61,5.29-5.61,5.29h-6.47a.92.92,0,0,1-.69-.34,1.07,1.07,0,0,1-.25-.77v-10h7c1.07,0,1.64,1.19,1.64,2.36v.41h1.36v-8.75h-1.36v.58c0,1.14-.52,2.33-1.64,2.33h-7V99h7.61c1.86,0,3.11,1.63,3.24,4.26v.36h1.3l-.47-7.39H286.16v1.6h.47c1.36,0,2,.86,2,2.77v21.11c0,1.77-.63,2.6-2,2.6h-.47v1.53h19.61l2.43-8.51h-1.49ZM204.9,107.21c0-6.18,1.33-10.67,3.86-13.36A7.64,7.64,0,0,1,214,91.36c4.64,0,9.34,4.9,9.34,15.85,0,7.86-2.84,15.81-9.21,15.81-5.63,0-9.26-6.21-9.26-15.82h.06Zm24.75,26.89H230v-1.75h-.32a11.91,11.91,0,0,1-5.92-2.24,12.88,12.88,0,0,1-4.09-5.07c6.31-2.49,10.22-9.19,10.22-17.58-.18-15.1-10.43-19.12-15.91-19.12-9.1,0-15.65,8-15.65,18.86,0,9.48,5.06,16.93,12.55,18.59a24.74,24.74,0,0,0,8.58,6.31,23.55,23.55,0,0,0,10.27,2Zm26.41-17.95V99.39c0-1,.47-1.57,1.31-1.57h1.17V96.24h-7.82v1.6h1.12a1.27,1.27,0,0,1,1,.44,1.54,1.54,0,0,1,.36,1.14v16.76a7.26,7.26,0,0,1-.58,2.76,7.11,7.11,0,0,1-1.55,2.31,6.6,6.6,0,0,1-2.3,1.45,6.24,6.24,0,0,1-2.64.38,5.9,5.9,0,0,1-2.43-.65,6.21,6.21,0,0,1-2-1.63,6.47,6.47,0,0,1-1.2-2.33,7,7,0,0,1-.22-2.65V100.17a2.41,2.41,0,0,1,.51-1.55,2.09,2.09,0,0,1,1.35-.8h.52V96.24h-9.63v1.58h.47a2.06,2.06,0,0,1,1.39.77,2.39,2.39,0,0,1,.52,1.58v15.45a10.94,10.94,0,0,0,.79,4.15,10.36,10.36,0,0,0,2.29,3.45,9.67,9.67,0,0,0,3.4,2.2,9.17,9.17,0,0,0,3.95.56C252,126,256.06,122.05,256.06,116.15ZM144.75,123a7,7,0,0,1-2.84-.64,7.11,7.11,0,0,1-2.37-1.8,20.19,20.19,0,0,1-4-13.4c0-3.61.62-15.35,9.23-15.85,3.39.23,9.1,2.5,9.29,15.57,0,9.64-3.73,16.09-9.26,16.09l-.05,0Zm.05-34.7a14.7,14.7,0,0,0-10.43,4.32,21.31,21.31,0,0,0-5.21,14.54c0,10.88,6.6,18.77,15.65,18.77s15.64-7.89,15.64-18.77S154,88.48,144.81,88.32Zm210.81,26c-1.46-3.16-5.21-5.54-8.26-7.34l-.53-.34a4.93,4.93,0,0,1-1.9-1.7,5.34,5.34,0,0,1-.86-2.48,3.93,3.93,0,0,1,.5-1.84,3.64,3.64,0,0,1,1.3-1.34,3.78,3.78,0,0,1,4.3,0,7.48,7.48,0,0,1,2.58,3,8.07,8.07,0,0,1,.81,4v.39H355V96.24h-1.46v.3a1.4,1.4,0,0,1-.15.53,1.36,1.36,0,0,1-.34.41,1.54,1.54,0,0,1-1.38-.19,7.24,7.24,0,0,0-4.85-1.36,7.35,7.35,0,0,0-4.57,2.16,8.45,8.45,0,0,0-1.81,3.06,8.89,8.89,0,0,0-.41,3.59,8.31,8.31,0,0,0,1.12,3.36,7.63,7.63,0,0,0,2.38,2.51l2,1.33a21.08,21.08,0,0,1,5.71,4.71,4.27,4.27,0,0,1,.22,4.63,3.85,3.85,0,0,1-1.05,1.18,3.93,3.93,0,0,1-4.75.53,7.8,7.8,0,0,1-3-3,8.56,8.56,0,0,1-1-4.26v-.39h-1.48v10.42h1.41v-.26a1.57,1.57,0,0,1,.7-1.1.93.93,0,0,1,1,0,11,11,0,0,0,5.37,1.52,7,7,0,0,0,4.75-1.69,8.27,8.27,0,0,0,2.73-4.53,8.62,8.62,0,0,0-.54-5.35ZM156.68,34.83c0-.3-.27-.69-.55-.69H130.05a.65.65,0,0,0-.54.16.78.78,0,0,0-.25.53l-.33,9.06h1.51V43.5c0-2.58.83-5.54,3.78-5.54h5.63V66.27a3.07,3.07,0,0,1-.72,2.08,2.72,2.72,0,0,1-1.89,1h-1.8v1.8h14.69v-1.8h-1.57a2.7,2.7,0,0,1-1.88-1,3,3,0,0,1-.72-2.08V37.82h5.73c2.95,0,3.68,3.11,3.81,5.68v.39H157l-.37-9.06Zm-52.43,2.08v67.8c0,26.15-20.39,52.82-48.77,62.7-28.48-9.88-48.8-36.55-48.8-62.7V36.91Zm2.61-2.77H4.08v70.57c0,27.7,21.31,55.23,50.65,65.42l.75.25.76-.25c29.29-10.19,50.54-37.72,50.54-65.42V34.14Zm-77,49.22c-.53,0-1,.61-1.2,1.41H31C30.86,84,30.37,83.36,29.85,83.36Zm0,4.26c.52,0,1-.61,1.2-1.41h-2.4C28.83,87,29.32,87.62,29.85,87.62Zm0,12.13c.52,0,1-.61,1.2-1.41h-2.4C28.83,99.14,29.32,99.75,29.85,99.75Zm0-4.26c-.53,0-1,.61-1.2,1.41H31C30.86,96.1,30.37,95.49,29.85,95.49ZM93.48,57.35c-3.54,8.31-9.08,13.85-21.78,16C73.74,59.07,78.56,53,86,49H24.94c7.36,4,12.21,10.06,14.22,24.35-12.7-2.25-18.26-7.67-21.78-16v68.41c3.55-8.31,9.08-13.85,21.78-16-2,14.21-6.86,20.39-14.32,24.35H86c-7.45-4-12.28-10.14-14.31-24.35,12.7,2.25,18.25,7.65,21.77,16V57.35ZM56.71,79.51c0-2.11,2-3.38,4.51-3.38,3.81,0,5.84,1.39,8,.91V99.78H62.55a10.2,10.2,0,0,0-5.84,1.14ZM41.69,77c2.11.44,4.14-.94,7.82-.94,2.61,0,4.51,1.27,4.51,3.38v21.41a10.16,10.16,0,0,0-5.61-1H41.69V77ZM80.41,95.35a2,2,0,0,1,1.43.63,2.12,2.12,0,0,1,.58,1.5A2.22,2.22,0,0,1,81.84,99a2,2,0,0,1-1.42.63H74.26v5.53H62.55a6,6,0,0,0-3.88.73,8,8,0,0,1-3.24.91,7.64,7.64,0,0,1-3.23-.94,6.28,6.28,0,0,0-3.79-.56H36.6V99.75H31.88a2.4,2.4,0,0,1-.84,1,2.31,2.31,0,0,1-1.19.42,2.84,2.84,0,0,1-1.79-.88,3.1,3.1,0,0,1-.82-1.89h-.58a.68.68,0,0,1-.48-.21.74.74,0,0,1-.19-.51.76.76,0,0,1,.19-.51.64.64,0,0,1,.48-.21h.68a3.17,3.17,0,0,1,.83-1.89A2.79,2.79,0,0,1,30,94.19a2.22,2.22,0,0,1,1.2.43,2.41,2.41,0,0,1,.83,1h4.73v-8H31.88a2.47,2.47,0,0,1-.84,1,2.31,2.31,0,0,1-1.19.42,2.84,2.84,0,0,1-1.79-.88,3.12,3.12,0,0,1-.82-1.89h-.58a.68.68,0,0,1-.48-.21.78.78,0,0,1,0-1,.69.69,0,0,1,.48-.22h.68a3.14,3.14,0,0,1,.83-1.88A2.85,2.85,0,0,1,30,82.05a2.39,2.39,0,0,1,1.2.43,2.54,2.54,0,0,1,.83,1h4.73V79.31l2.6-1.6v24.73h9.1a7.89,7.89,0,0,1,4.88.94,5.46,5.46,0,0,0,2.25.69,5.47,5.47,0,0,0,2.24-.69,8,8,0,0,1,4.87-.94h9.19V78l2.6,1.27v4H80.6A2,2,0,0,1,82,84a2.2,2.2,0,0,1,.59,1.51A2.23,2.23,0,0,1,82,87a2,2,0,0,1-1.42.62H74.26v7.87l6.16-.14Z"/></svg>