<svg id="e7439fa4-6ef1-4b96-be7e-c9ba3b1a1a89" data-name="Layer 1" xmlns="http://www.w3.org/2000/svg" viewBox="0 0 139.62 200"><defs><style>.b6ec570c-97bc-412c-9177-c3e11f043fff{fill:#010101;}</style></defs><path class="b6ec570c-97bc-412c-9177-c3e11f043fff" d="M50.2,161.52a2.81,2.81,0,0,0-2.71,1.64l-5.2,13.32-.41,1.43-.42-1.43-4.16-12.9v-.21a3,3,0,0,0-2.71-1.84H27.93a2.74,2.74,0,0,0-2.5,2.87c0,.4.21.81.21,1.22l.83,2.87-3.12,8-.63,1.44-.41-1.44-4-12.9v-.2h-.2a2.5,2.5,0,0,0-2.5-1.84H9a2.91,2.91,0,0,0-2.71,2.86,2.87,2.87,0,0,0,.42,1.23l9.78,29.08a2.87,2.87,0,0,0,2.71,2.05,2.94,2.94,0,0,0,2.7-1.85l6.87-17.2.63-1.63.41,1.63,5.83,17a2.69,2.69,0,0,0,2.7,2.05A3,3,0,0,0,41,194.9L52.7,165.42a2.54,2.54,0,0,0,.21-1.23,2.74,2.74,0,0,0-2.71-2.66Zm49.33,0a2.8,2.8,0,0,0-2.71,1.64l-5.2,13.32-.42,1.43-.41-1.43-4.17-12.91v-.2a3,3,0,0,0-2.7-1.85H77.26a2.75,2.75,0,0,0-2.5,2.87,2.54,2.54,0,0,0,.21,1.23l.83,2.87-3.13,8-.62,1.44-.41-1.44-4-12.9-.21-.2A2.49,2.49,0,0,0,65,161.52H58.32a2.92,2.92,0,0,0-2.71,2.87,2.87,2.87,0,0,0,.42,1.23l9.78,29.08a2.85,2.85,0,0,0,2.71,2,3,3,0,0,0,2.7-1.84l6.87-17.2.63-1.64.41,1.64,5.83,17a2.68,2.68,0,0,0,2.7,2,3,3,0,0,0,2.71-1.84L102,165.41a2.6,2.6,0,0,0,.2-1.22,2.74,2.74,0,0,0-2.7-2.67Zm32.05,0h-23.1A2.39,2.39,0,0,0,106,164v30.11a2.69,2.69,0,0,0,2.7,2.45h6.46a2.38,2.38,0,0,0,2.49-2.45V180h9.58a2.67,2.67,0,0,0,2.49-2.46,2.69,2.69,0,0,0-2.49-2.66h-9.58v-8h14a2.67,2.67,0,1,0,0-5.33ZM95.78,65.28c4.16,4.5,4.58,18.43,15.19,12.9,6.25-3.28,6.25-17.2-2.29-22.32-6.87-3.89-10.61,1.43-13.11,8A1.2,1.2,0,0,0,95.78,65.28ZM79.34,63c-4.58,3.49-7.5,13.52-15.61,10-6.66-3.28-7.29-16,4.16-21.91,7.91-3.69,11.86,3.48,11.86,11.06A1.49,1.49,0,0,1,79.34,63ZM90.16,88.21c4.37-.41,3.33-4.5,0-5.32a30.43,30.43,0,0,0-10.61-1.44c-5.63,0-5.41,4.3-2.51,5.13,2.3.61,3.75.81,5.63,3.27,1.66,3.28.83-1,7.49-1.64ZM110.76,17c5.42-9,15-7.38,19.78-2.87,5.2,4.91,6.24,10.65,4.16,14.54-2.7,5.32-9.78,11.67-14.36,5.53-2.08-2.87-6.24-6.14-8.74-7-3.54-1.64-4.17-4.71-.83-10.24Z"/><path class="b6ec570c-97bc-412c-9177-c3e11f043fff" d="M132.62,56.47c-.42-1.64-1.25-1.43-1.25-.2.42,16.38-9.57,34-30.8,34.2-5.41,0-3.75,8.39-13.74,4.09-7.08-4.71-11.24,4.71-16.24-5.32a7.42,7.42,0,0,0-5-4.71c-21-5.12-27.68-33.59-9.16-56.52,3.54,2.25,5,2.66,9-1a23.5,23.5,0,0,1,7.29-4.5c4.37-1.64,6.87-3.49,2.91-11.88-1.82-3.95-4.3-6.06-7-7H61.57A16.09,16.09,0,0,0,56,6.51c-5.42,4.29-9,11-2.3,19C35,38,31.67,53.4,32.09,66.91,32.5,81,29,79.82,33.55,94.15c.41,1.23-.63,1.23-1.25.82C12.73,82.69,2.12,45,32.72,24.32c.62-.61.41-1.43-2.09,0C4.2,38,1.7,64.66,6.07,82.68c2.08,8.6-1,10.24,2.29,21.71,7.91,23.76,14.57,25.8,24.15,26.42,17.27,0,5.41-9.42,6.24-21.09,0-.82.83-1,1.25.4,9.57,20.89,16.23,39.94,41.21,38.09,14.36-1.84,6.45-8.8,5.41-12.9-10.61-34.61,15.19-42.8,7.91-9-4.79,19.46,10.41,17.41,21.23,10.44C126.79,129.78,140.53,82.48,132.62,56.47ZM90.57,97.63c-2.49,6.14-14.77,4.1-15.19-2,0-.21.42-.21.42,0a73.08,73.08,0,0,0,14.36,1.84C90.37,97.43,90.57,97.22,90.57,97.63Z"/><path class="b6ec570c-97bc-412c-9177-c3e11f043fff" d="M36.67,141.46a5.92,5.92,0,0,1-1.77,4.2,6.15,6.15,0,0,1-4.27,1.74,6,6,0,0,1-6.24-5.94,6.14,6.14,0,1,1,12.28,0Zm-6-7.17a7.23,7.23,0,0,0-7.49,7.16,7.39,7.39,0,0,0,14.78,0A7.18,7.18,0,0,0,30.63,134.29Z"/><path class="b6ec570c-97bc-412c-9177-c3e11f043fff" d="M32.72,142.48a2,2,0,0,1-1.88,1.64,2.56,2.56,0,0,1-2.5-2.66,2.4,2.4,0,0,1,2.29-2.66,2.07,2.07,0,0,1,2.09,1.43h1a2.82,2.82,0,0,0-3.13-2.46,3.52,3.52,0,0,0-3.53,3.69,3.57,3.57,0,0,0,3.74,3.68c1.46,0,2.5-1,2.91-2.66ZM133,150.88a5.92,5.92,0,0,1-1.77,4.2,6.11,6.11,0,0,1-4.27,1.74,6,6,0,0,1-6.24-5.94,6.14,6.14,0,1,1,12.28,0Zm-6-7.17a7.23,7.23,0,0,0-7.49,7.17,7.39,7.39,0,0,0,14.78,0A7.19,7.19,0,0,0,127,143.71Z"/><path class="b6ec570c-97bc-412c-9177-c3e11f043fff" d="M125.75,151.29h1l1.88,3.07h1.24l-2.08-3.07c1-.21,1.88-.62,1.88-1.85,0-1.43-.84-2-2.5-2h-2.5v7h1v-3.07Zm0-.82v-2.05H127c.83,0,1.67,0,1.67.82,0,1.23-.84,1.23-1.67,1.23Z"/></svg>